<svg width="17" height="17" viewBox="0 0 17 17" fill="none" xmlns="http://www.w3.org/2000/svg">
<g>
	<path fill="#F6BA34" fill-rule="evenodd" clip-rule="evenodd" d="M6.2,10H2c-0.3,0-0.5,0.1-0.7,0.3C1,10.5,0.9,10.7,0.9,11v4.2c0,0.3,0.1,0.5,0.3,0.7c0.2,0.2,0.4,0.3,0.7,0.3
		h4.2c0.3,0,0.5-0.1,0.7-0.3c0.2-0.2,0.3-0.4,0.3-0.7V11c0-0.3-0.1-0.5-0.3-0.7C6.7,10.1,6.5,10,6.2,10z"/>
	<path  fill="#F6BA34" fill-rule="evenodd" clip-rule="evenodd" d="M6.2,1.6H2c-0.3,0-0.5,0.1-0.7,0.3C1,2.1,0.9,2.3,0.9,2.6v4.2c0,0.3,0.1,0.5,0.3,0.7C1.4,7.8,1.7,7.9,2,7.9
		h4.2c0.3,0,0.5-0.1,0.7-0.3c0.2-0.2,0.3-0.5,0.3-0.7V2.6c0-0.3-0.1-0.5-0.3-0.7C6.7,1.7,6.5,1.6,6.2,1.6z"/>
	<path  fill="#F6BA34" fill-rule="evenodd" clip-rule="evenodd" d="M16.7,3.4l-3.1-3.1C13.3,0.1,13.1,0,12.8,0S12.2,0.1,12,0.3L8.9,3.4C8.6,3.7,8.5,3.9,8.5,4.2
		c0,0.3,0.1,0.6,0.3,0.8L12,8.1c0.2,0.2,0.5,0.3,0.8,0.3s0.6-0.1,0.8-0.3L16.7,5C16.9,4.8,17,4.5,17,4.2S16.9,3.7,16.7,3.4z"/>
	<path  fill="#F6BA34" fill-rule="evenodd" clip-rule="evenodd" d="M14.6,10h-4.2c-0.3,0-0.5,0.1-0.7,0.3c-0.2,0.2-0.3,0.4-0.3,0.7v4.2c0,0.3,0.1,0.5,0.3,0.7
		c0.2,0.2,0.5,0.3,0.7,0.3h4.2c0.3,0,0.5-0.1,0.7-0.3c0.2-0.2,0.3-0.4,0.3-0.7V11c0-0.3-0.1-0.5-0.3-0.7C15.1,10.1,14.9,10,14.6,10z
		"/>
</g>
</svg>
