<svg width="17" height="17" viewBox="0 0 17 17" fill="none" xmlns="http://www.w3.org/2000/svg">
<g>
	<path fill="#EE7C5C" d="M8.4,7C8.9,7,9.3,6.5,9.3,6S8.9,5.1,8.4,5.1C7.9,5.1,7.5,5.5,7.5,6S7.9,7,8.4,7z"/>
	<path fill="#EE7C5C" d="M8.8,8.9H7.9c-1.1,0-2,1.1-2,2.5c0,0.3,0.2,0.5,0.5,0.5h4c0.3,0,0.5-0.2,0.5-0.5C10.8,10,9.9,8.9,8.8,8.9z"/>
	<path fill="#EE7C5C" d="M12.8,1H4C2.3,1,0.9,2.4,0.9,4.1v0.6H2c0.4,0,1.2,0.1,1.2,1.2C3.2,7,2.4,7.1,2,7.1H0.9v2.8H2
		c0.4,0,1.2,0.2,1.2,1.2c0,1-0.8,1.2-1.2,1.2H0.9v0.6C0.9,14.6,2.3,16,4,16h8.9c1.7,0,3.1-1.4,3.1-3.1V4.1C15.9,2.4,14.5,1,12.8,1z
		 M10.8,13.4H5.9c-1,0-1.8-0.8-1.8-1.8c0-1.8,1-3.4,2.4-4C6.2,7.1,5.9,6.6,5.9,6c0-1.4,1.1-2.5,2.5-2.5c1.4,0,2.5,1.1,2.5,2.5
		c0,0.6-0.2,1.1-0.6,1.5c1.4,0.6,2.4,2.2,2.4,4C12.7,12.6,11.9,13.4,10.8,13.4z"/>
</g>
</svg>
